<?xml version="1.0" encoding="utf-8"?>
<!-- Generator: Adobe Illustrator 24.2.3, SVG Export Plug-In . SVG Version: 6.00 Build 0)  -->
<svg version="1.1" id="Слой_1" xmlns="http://www.w3.org/2000/svg" xmlns:xlink="http://www.w3.org/1999/xlink" x="0px" y="0px"
	 viewBox="0 0 150 150" style="enable-background:new 0 0 150 150;" xml:space="preserve">
<style type="text/css">
	.st0{fill:#FFFFFF;}
</style>
<path class="st0" d="M13.5,108.33C7.97,64.26,21.22,50.5,21.22,50.5s-1.44,0.86-0.61,6.91c0.06,0.41,0.12,0.79,0.2,1.11
	c1.02,4.4,3.53,0.92,3.53,0.92c16.81-29.01,38.69-29.21,38.69-29.21l-7.22,6.02c-6.06,6.02,1.12,6.62,1.12,6.62l13.85-9.45
	c0.51,17.28,14.39,1.21,14.39,1.21l0.26,7.2c1.46-2.59,9.53-6.3,9.53-6.3c5.41,13.26,15.54,0.64,15.54,0.64
	c-2.3,1.43-2.63,11.21-2.63,11.21c3.42,8.65,12.69-6.28,12.69-6.28c3.45,2.89,2.8,17.86,2.8,17.86c3.16,0.59,5.52-11.2,5.52-11.2
	c2.59,1.74,3.09,21.03,3.09,21.03c2.86,2.02,5.78-7.46,5.78-7.46c1.1,14.4-6.52,51.79-6.52,51.79c-4.08,9.2-5.97,51.22-5.97,51.22
	c-3.44-1.74-4.58-7.5-4.58-7.5c2.99-23.6,3.14-40.57-1.51-52.97c-10.12-26.91-47.18-7.67-47.18-7.67
	c-43.1-19.16-46.69,15.94-46.69,15.94c2.14,40.88-5.37,47.76-5.37,47.76S15.12,121.22,13.5,108.33z M117.67,126.39
	c0,9.4-2.82,19-13.53,19c-10.73,0-25.3-9.6-25.3-19c0-1.73,0.38-3.21,0.93-4.56h-9.54c0.55,1.36,0.93,2.83,0.93,4.56
	c0,9.4-14.56,19-25.29,19c-10.72,0-13.55-9.6-13.55-19c0-8.73,7.54-12.47,17.21-12.96v-0.09H100v0.07
	C109.89,113.8,117.67,117.52,117.67,126.39z M81.08,119.49c0.89-1.18,1.96-2.21,3.29-3.03H65.63c1.34,0.82,2.41,1.85,3.29,3.03
	H81.08z"/>
</svg>
