<svg width="400.000000" height="111.776917" viewBox="0 0 400 111.777" fill="none" xmlns="http://www.w3.org/2000/svg" xmlns:xlink="http://www.w3.org/1999/xlink">
	<desc>
			Created with Pixso.
	</desc>
	<defs/>
	<mask id="mask8_30" mask-type="alpha" maskUnits="userSpaceOnUse" x="0.000000" y="0.000000" width="400.000000" height="111.776917">
		<rect id="rect" width="400.000000" height="111.776901" fill="#000000" fill-opacity="1.000000"/>
	</mask>
	<g mask="url(#mask8_30)">
		<path id="path" d="M150.7 11.12C100.12 13.35 52.91 29.22 23.52 46.6C-0.45 60.8 -12.24 81.01 18.37 95.04C44.73 107.14 89.35 110.09 125.51 111.29C161.83 112.31 198.29 111.25 233.98 108.15C294.44 103.27 405.9 90.3 399.75 54.92C396.19 34.66 356.3 15.57 316.62 6.88C268.81 -3.63 213.25 -0.75 163.81 5.69C113.61 12.22 66.23 23.75 35.95 42.95C11.45 58.47 -6.93 83.28 26.31 98.96C55.71 112.82 109.36 112.43 148.31 109.75C195.48 106.5 242.45 102.12 287.03 94.4C327.88 87.3 370.92 76.46 390.03 58.26C403.6 45.31 401.05 31.52 374.28 22.56C346.83 13.39 307.59 11.38 274.31 10.34C238.09 9.21 201.69 10.18 166.04 13.21L140.25 15.34C136.4 15.64 138.02 18.2 141.83 17.9C165.8 15.98 189.49 13.57 213.82 12.91C230.93 12.48 248.08 12.43 265.2 12.77C300.75 13.48 341.57 15.45 371.24 24.87C406.84 36.19 391.04 56.91 366.59 69.1C333.22 85.76 279.94 93.8 232.61 99.48C187.74 104.8 137.62 110.12 90.89 108.08C68.22 107.12 44.85 103.82 29.02 96.37C10.76 87.75 12.5 75.17 19.14 64.65C35.34 38.85 85.14 21.53 139.84 12.09C192.48 3.03 254.19 -1.92 307.96 8.05C334.43 13.23 356.93 21.65 372.74 32.3C385.66 40.61 395.54 50.28 393.8 60.53C390.8 78.04 349.7 88.63 316.87 94.86C278.56 102.12 236.37 105.99 195.07 108.01C156.26 110.14 116.89 109.29 78.75 105.49C57.65 103.24 36.39 99.46 21.17 92.47C4.08 84.64 2.83 73.46 9.83 63.56C19.14 50.36 42.71 39.31 66.52 30.76C90.33 22.21 119.8 15.07 150.62 13.71C154.66 13.53 154.75 10.94 150.7 11.12Z" fill="#E87C24" fill-opacity="1.000000" fill-rule="nonzero"/>
	</g>
</svg>
