<svg width="33.000000" height="33.000000" viewBox="0 0 33 33" fill="none" xmlns="http://www.w3.org/2000/svg" xmlns:xlink="http://www.w3.org/1999/xlink">
	<desc>
			Created with Pixso.
	</desc>
	<defs>
		<clipPath id="clip10_99">
			<rect id="fingerprint" width="33.000000" height="33.000000" fill="white" fill-opacity="0"/>
		</clipPath>
	</defs>
	<rect id="fingerprint" width="33.000000" height="33.000000" fill="#FFFFFF" fill-opacity="0"/>
	<g clip-path="url(#clip10_99)">
		<path id="矢量 125" d="M24.48 6.14C24.37 6.14 24.26 6.11 24.17 6.06C21.53 4.7 19.25 4.12 16.51 4.12C13.79 4.12 11.2 4.77 8.85 6.06C8.52 6.24 8.11 6.11 7.92 5.78C7.74 5.45 7.86 5.03 8.19 4.85C10.75 3.46 13.55 2.75 16.51 2.75C19.44 2.75 22 3.39 24.8 4.84C25.14 5.01 25.27 5.43 25.09 5.76C24.97 6 24.73 6.14 24.48 6.14ZM4.81 13.36C4.67 13.36 4.53 13.32 4.41 13.24C4.09 13.02 4.02 12.59 4.24 12.27C5.61 10.35 7.34 8.84 9.4 7.78C13.72 5.55 19.25 5.54 23.58 7.76C25.64 8.82 27.37 10.32 28.73 12.23C28.95 12.54 28.88 12.98 28.57 13.2C28.25 13.41 27.83 13.35 27.61 13.03C26.37 11.3 24.8 9.94 22.94 8.99C19 6.97 13.95 6.97 10.02 9C8.15 9.96 6.58 11.34 5.34 13.07C5.23 13.26 5.03 13.36 4.81 13.36ZM13.4 29.96C13.22 29.96 13.04 29.89 12.92 29.75C11.72 28.55 11.08 27.78 10.16 26.12C9.21 24.43 8.71 22.37 8.71 20.15C8.71 16.07 12.21 12.74 16.5 12.74C20.79 12.74 24.28 16.07 24.28 20.15C24.28 20.54 23.98 20.84 23.59 20.84C23.21 20.84 22.9 20.54 22.9 20.15C22.9 16.83 20.03 14.12 16.5 14.12C12.96 14.12 10.09 16.83 10.09 20.15C10.09 22.13 10.53 23.96 11.37 25.45C12.25 27.03 12.85 27.7 13.91 28.77C14.17 29.05 14.17 29.48 13.91 29.75C13.76 29.89 13.58 29.96 13.4 29.96ZM23.26 27.41C21.62 27.41 20.18 27 19 26.19C16.95 24.8 15.73 22.55 15.73 20.15C15.73 19.77 16.03 19.46 16.41 19.46C16.8 19.46 17.1 19.77 17.1 20.15C17.1 22.09 18.09 23.92 19.77 25.05C20.74 25.71 21.89 26.02 23.26 26.02C23.59 26.02 24.14 25.98 24.69 25.89C25.06 25.82 25.42 26.07 25.49 26.45C25.56 26.82 25.31 27.18 24.92 27.25C24.14 27.4 23.45 27.41 23.26 27.41ZM20.5 30.25C20.44 30.25 20.37 30.23 20.32 30.22C18.13 29.61 16.7 28.8 15.2 27.33C13.28 25.42 12.22 22.87 12.22 20.15C12.22 17.92 14.12 16.11 16.45 16.11C18.79 16.11 20.69 17.92 20.69 20.15C20.69 21.62 21.97 22.82 23.55 22.82C25.13 22.82 26.41 21.62 26.41 20.15C26.41 14.97 21.94 10.76 16.44 10.76C12.54 10.76 8.96 12.93 7.35 16.3C6.82 17.42 6.54 18.72 6.54 20.15C6.54 21.23 6.64 22.92 7.46 25.12C7.6 25.47 7.42 25.87 7.06 26C6.71 26.13 6.31 25.94 6.18 25.6C5.51 23.8 5.18 22.01 5.18 20.15C5.18 18.5 5.5 17 6.11 15.7C7.94 11.86 12 9.37 16.44 9.37C22.7 9.37 27.78 14.2 27.78 20.14C27.78 22.37 25.89 24.18 23.55 24.18C21.21 24.18 19.31 22.37 19.31 20.14C19.31 18.67 18.04 17.47 16.45 17.47C14.87 17.47 13.59 18.67 13.59 20.14C13.59 22.49 14.5 24.69 16.17 26.34C17.47 27.63 18.72 28.35 20.66 28.88C21.03 28.98 21.24 29.37 21.14 29.72C21.07 30.04 20.79 30.25 20.5 30.25Z" fill="#444444" fill-opacity="1.000000" fill-rule="evenodd"/>
	</g>
</svg>
