<?xml version="1.0" standalone="no"?>
<!DOCTYPE svg PUBLIC "-//W3C//DTD SVG 20010904//EN"
 "http://www.w3.org/TR/2001/REC-SVG-20010904/DTD/svg10.dtd">
<svg version="1.0" xmlns="http://www.w3.org/2000/svg"
 width="512.000000pt" height="512.000000pt" viewBox="0 0 512.000000 512.000000"
 preserveAspectRatio="xMidYMid meet">

<g transform="translate(0.000000,512.000000) scale(0.100000,-0.100000)"
fill="#000000" stroke="none">
<path d="M0 4755 l0 -365 2560 0 2560 0 0 365 0 365 -2560 0 -2560 0 0 -365z"/>
<path d="M391 3783 c168 -170 603 -610 967 -980 l662 -671 2 -1065 3 -1065
538 341 537 341 0 724 0 724 662 671 c364 370 799 810 967 980 l306 307 -2475
0 -2475 0 306 -307z"/>
</g>
</svg>
