<svg width="32.000000" height="32.000000" viewBox="0 0 32 32" fill="none" xmlns="http://www.w3.org/2000/svg" xmlns:xlink="http://www.w3.org/1999/xlink">
	<desc>
			Created with Pixso.
	</desc>
	<defs>
		<clipPath id="clip24_488">
			<rect id="settings_phone" width="32.000000" height="32.000000" fill="white" fill-opacity="0"/>
		</clipPath>
	</defs>
	<rect id="settings_phone" width="32.000000" height="32.000000" fill="#FFFFFF" fill-opacity="0"/>
	<g clip-path="url(#clip24_488)">
		<path id="矢量 282" d="M17.33 11.9L14.66 11.9L14.66 14.55L17.33 14.55L17.33 11.9ZM22.66 11.9L20 11.9L20 14.55L22.66 14.55L22.66 11.9ZM26.66 20.5C25 20.5 23.4 20.24 21.9 19.75C21.43 19.6 20.91 19.71 20.54 20.06L17.61 22.97C13.83 21.07 10.74 18.01 8.82 14.27L11.75 11.35C12.13 10.99 12.24 10.47 12.09 10.01C11.59 8.53 11.33 6.94 11.33 5.29C11.33 4.56 10.73 3.96 10 3.96L5.33 3.96C4.59 3.96 4 4.56 4 5.29C4 17.71 14.14 27.78 26.66 27.78C27.4 27.78 28 27.18 28 26.45L28 21.82C28 21.09 27.4 20.5 26.66 20.5ZM25.33 11.9L25.33 14.55L28 14.55L28 11.9L25.33 11.9Z" fill="#FFFFFF" fill-opacity="1.000000" fill-rule="evenodd"/>
	</g>
</svg>
